<?xml version="1.0" standalone="no"?><!DOCTYPE svg PUBLIC "-//W3C//DTD SVG 1.1//EN" "http://www.w3.org/Graphics/SVG/1.1/DTD/svg11.dtd"><svg t="1640185714365" class="icon" viewBox="0 0 1024 1024" version="1.1" xmlns="http://www.w3.org/2000/svg" p-id="6961" xmlns:xlink="http://www.w3.org/1999/xlink" width="128" height="128"><path d="M512 512m-512 0a512 512 0 1 0 1024 0 512 512 0 1 0-1024 0Z" fill="#F0B90B" p-id="6962"></path><path d="M273.066667 435.899733v-62.6688l52.7872-28.928 51.4048 30.993067-53.486934 28.928v62.6688L273.066667 435.882667zM323.754667 510.976L273.066667 481.3312v167.355733l144.469333 81.954134v-58.538667l-93.764267-53.7088v-107.451733zM511.317333 238.933333l-143.786666 82.6368 50.688 28.245334 93.0816-53.026134 93.764266 53.026134 50.005334-28.245334L511.317333 238.933333zM367.530667 490.308267v-61.2864l50.688-30.3104 93.0816 53.026133 93.764266-53.026133 52.104534 30.3104v61.269333l-92.381867 52.360533v106.052267l-53.486933 30.3104-53.469867-30.3104v-106.052267l-90.299733-52.343466z" fill="#FFFFFF" p-id="6963"></path><path d="M511.317333 345.685333l-51.4048 29.610667 51.387734 29.610667 52.7872-29.610667-52.7872-29.610667zM696.763733 344.302933l-50.705066 30.993067 50.688 28.928v62.6688L750.933333 436.565333V375.296l-54.1696-30.993067zM750.933333 481.348267l-54.1696 29.610666v107.451734l-91.6992 53.7088v58.538666L750.933333 648.704v-167.355733z" fill="#FFFFFF" p-id="6964"></path><path d="M605.064533 625.9712v-61.2864l52.104534-27.5456v59.221333l-52.104534 29.610667zM364.049067 537.1392l54.186666 27.5456-0.682666 61.2864-53.504-29.610667v-59.221333zM511.317333 725.845333l-53.486933-30.3104v57.856L511.300267 785.066667l53.486933-31.675734v-57.856l-53.486933 30.3104z" fill="#FFFFFF" p-id="6965"></path></svg>