<?xml version="1.0" standalone="no"?><!DOCTYPE svg PUBLIC "-//W3C//DTD SVG 1.1//EN" "http://www.w3.org/Graphics/SVG/1.1/DTD/svg11.dtd"><svg t="1640183102361" class="icon" viewBox="0 0 1024 1024" version="1.1" xmlns="http://www.w3.org/2000/svg" p-id="2585" xmlns:xlink="http://www.w3.org/1999/xlink" width="128" height="128"><path d="M466.75 783.53a160 160 0 0 1-226.28-226.28l113.14-113.13-45.25-45.25L195.22 512c-87.12 87.12-87.12 229.67 0 316.78a224.66 224.66 0 0 0 316.78 0l113.14-113.13-45.25-45.25z m362-588.31a224.66 224.66 0 0 0-316.78 0L398.86 308.35l45.25 45.25 113.14-113.13a160 160 0 0 1 226.28 226.28L670.39 579.88l45.25 45.25L828.78 512c87.12-87.12 87.12-229.67 0-316.78zM384 96v130.49h-65.24V96zM226.49 384H96v-65.24h130.49zM253.516 299.646l-92.27-92.27 46.131-46.132 92.27 92.27zM928 705.24H797.51V640H928zM705.25 797.51V928h-65.24V797.51zM770.484 724.352l92.27 92.27-46.131 46.132-92.27-92.27z" p-id="2586"></path></svg>